<?xml version="1.0" standalone="no"?><!DOCTYPE svg PUBLIC "-//W3C//DTD SVG 1.1//EN" "http://www.w3.org/Graphics/SVG/1.1/DTD/svg11.dtd"><svg t="1492529277664" class="icon" style="" viewBox="0 0 1024 1024" version="1.1" xmlns="http://www.w3.org/2000/svg" p-id="2481" xmlns:xlink="http://www.w3.org/1999/xlink" width="64" height="64"><defs><style type="text/css"></style></defs><path d="M888.073481 383.943111c-15.701333 0-28.444444 12.724148-28.444444 28.444444l0 256.891259c0 71.49037-58.159407 129.649778-129.649778 129.649778l-435.958519 0c-71.49037 0-129.630815-58.159407-129.630815-129.649778L164.389926 392.628148c0-71.49037 58.140444-129.649778 129.630815-129.649778l435.958519 0c30.435556 0 60.017778 10.752 83.26637 30.264889 0.075852 0.056889 0.151704 0.151704 0.227556 0.208593L507.676444 514.085926l-222.189037-160.95763c-12.705185-9.197037-30.492444-6.352593-39.727407 6.352593-9.216 12.724148-6.371556 30.492444 6.352593 39.727407l238.838519 173.018074c4.968296 3.602963 10.827852 5.404444 16.687407 5.404444 5.840593 0 11.681185-1.801481 16.649481-5.366519l348.899556-251.752296c12.743111-9.178074 15.606519-26.965333 6.428444-39.708444-2.180741-3.034074-4.892444-5.480296-7.86963-7.35763-1.024-1.820444-1.72563-3.754667-3.166815-5.366519-6.637037-7.35763-12.572444-13.198222-18.735407-18.394074-33.507556-28.122074-76.079407-43.595852-119.864889-43.595852l-435.958519 0c-102.836148 0-186.519704 83.683556-186.519704 186.538667l0 276.650667c0 102.855111 83.683556 186.538667 186.519704 186.538667l435.958519 0c102.855111 0 186.538667-83.683556 186.538667-186.538667L916.517926 412.387556C916.517926 396.667259 903.774815 383.943111 888.073481 383.943111z" p-id="2482" fill="#ffffff"></path></svg>