<?xml version="1.0" standalone="no"?><!DOCTYPE svg PUBLIC "-//W3C//DTD SVG 1.1//EN" "http://www.w3.org/Graphics/SVG/1.1/DTD/svg11.dtd"><svg t="1492529485187" class="icon" style="" viewBox="0 0 1024 1024" version="1.1" xmlns="http://www.w3.org/2000/svg" p-id="4301" xmlns:xlink="http://www.w3.org/1999/xlink" width="64" height="64"><defs><style type="text/css"></style></defs><path d="M128.030905 164.447603 128.030905 970.4C128.030905 976.08824 130.408864 980.659149 133.949381 984.061935 138.705298 988.632838 143.408373 990.918292 149.379691 990.918292L190.861862 990.918292C196.780337 990.918292 201.536255 988.632838 206.292173 984.061935 209.832689 980.659149 212.210648 976.08824 212.210648 970.4L212.210648 164.447603C240.693311 148.500218 254.90822 125.696473 254.90822 94.919035 254.90822 72.115291 246.611785 52.714332 230.018917 36.766947 213.426049 21.936895 193.239821 13.963202 170.728477 13.963202 147.001733 13.963202 126.815504 21.936895 110.222636 36.766947 93.629767 52.714332 85.333333 72.115291 85.333333 94.919035 85.333333 125.696473 99.548243 148.500218 128.030905 164.447603L128.030905 164.447603ZM264.072987 735.88695C269.898366 743.880181 276.577144 748.462285 284.888512 748.462285 289.897595 748.462285 294.906679 746.171233 299.878658 742.760107 383.994156 681.054413 456.458897 650.201566 515.603186 650.201566 538.088406 650.201566 560.573625 654.78367 582.205445 663.896974 603.058074 673.061183 621.350505 683.345465 635.524355 694.749821 649.698207 706.205082 666.320942 716.489364 686.320174 725.602668 705.466004 734.766876 724.648937 739.348986 742.941366 739.348986 791.251194 739.348986 847.909495 714.198312 914.511753 665.067952 922.860225 659.314864 929.501901 653.612692 932.84129 647.910514 936.996972 642.208336 938.666667 634.215105 938.666667 622.759839L938.666667 137.107511C938.666667 125.652246 936.180679 116.538946 930.355297 108.545717 924.52992 100.552487 917.034849 95.970381 909.539772 95.970381 905.346987 95.970381 897.035617 100.552487 883.715163 109.665787 871.211008 118.829999 857.074261 127.943299 842.900412 139.398564 828.726562 150.802917 811.250426 159.967129 792.104596 169.080429 772.105364 178.244641 753.775832 182.826747 737.115989 182.826747 722.125841 182.826747 707.989094 178.244641 696.301232 170.251412 657.193279 145.100741 623.873599 126.823229 594.709601 114.247893 565.582709 101.672558 534.749017 95.970381 501.429336 95.970381 443.954741 95.970381 379.022177 121.121052 305.741141 172.542465 288.227901 185.066888 275.723745 194.2311 269.082071 199.933277 259.917303 209.097488 254.90822 221.672824 254.90822 235.36823L254.90822 707.325156C254.90822 718.780422 258.247609 727.89372 264.072987 735.88695L264.072987 735.88695Z" p-id="4302" fill="#ffffff"></path></svg>