<?xml version="1.0" standalone="no"?><!DOCTYPE svg PUBLIC "-//W3C//DTD SVG 1.1//EN" "http://www.w3.org/Graphics/SVG/1.1/DTD/svg11.dtd"><svg t="1492529214587" class="icon" style="" viewBox="0 0 1024 1024" version="1.1" xmlns="http://www.w3.org/2000/svg" p-id="1430" xmlns:xlink="http://www.w3.org/1999/xlink" width="64" height="64"><defs><style type="text/css"></style></defs><path d="M780.969383 808.641117c94.216825-53.160757 156.608827-144.972812 156.608827-249.5281 0-66.141396-25.226544-127.029138-67.373457-176.469154 2.821255-19.305695 4.737908-38.818097 4.737908-58.781778 0-9.117658-0.9967-18.027585-1.598404-27.013237C951.337585 361.834932 1000.213759 453.419813 1000.213759 555.165102c0 114.180506-61.394279 215.541031-156.588361 280.846386l0 177.868013L668.048567 905.640312c-24.343431 3.984754-49.344848 6.315846-75.005274 6.315846-120.608915 0-197.305715-46.206368-271.859711-119.218242 12.257162 0.714268 24.475438 1.578961 36.956703 1.578961 17.482163 0 34.739199-0.864694 51.807946-2.219551 58.875922 40.568974 101.961206 64.966641 183.094038 64.966641 27.972075 0 55.003731-3.195785 81.039711-8.645914l106.885356 71.357188L780.967336 808.641117zM436.454932 731.605603c-25.678846 0-81.020268-4.285606-105.363699-8.271384L154.556587 825.709865 154.556587 647.801942C72.708464 578.061578 29.266046 481.127875 29.266046 366.985232c0-197.024306 181.985798-356.75217 407.188886-356.75217 187.193403 0 375.85218 159.728888 375.85218 356.75217C812.307112 564.03819 661.319306 731.605603 436.454932 731.605603zM324.078515 660.247392c26.034956 5.41329 84.404342 8.609075 112.375393 8.609075 190.275601 0 313.197188-133.382846 313.197188-297.942763S592.178599 72.962755 436.454932 72.962755c-195.670471 0-344.534917 133.392056-344.534917 297.951973 0 104.556311 48.876174 187.44616 125.271098 249.556753L217.191112 731.605603 324.078515 660.247392zM608.702947 417.966347c-25.941835 0-46.975894-21.072945-46.975894-47.051619 0-25.979698 21.035082-47.051619 46.975894-47.051619 25.960255 0 46.976918 21.071921 46.976918 47.051619C655.679865 396.893402 634.663202 417.966347 608.702947 417.966347zM420.776857 417.966347c-25.941835 0-46.976918-21.072945-46.976918-47.051619 0-25.979698 21.036106-47.051619 46.976918-47.051619s46.994314 21.071921 46.994314 47.051619C467.772194 396.893402 446.718693 417.966347 420.776857 417.966347zM232.850767 417.966347c-25.941835 0-46.975894-21.072945-46.975894-47.051619 0-25.979698 21.035082-47.051619 46.975894-47.051619 25.961278 0 46.976918 21.071921 46.976918 47.051619C279.827685 396.893402 258.811022 417.966347 232.850767 417.966347z" p-id="1431" fill="#ffffff"></path></svg>